<svg width="48" height="48" viewBox="0 0 48 48" fill="none" xmlns="http://www.w3.org/2000/svg">
<path d="M24 47C24 47.5523 24.4481 48.0022 24.9999 47.9792C31.0016 47.7292 36.7059 45.2352 40.9706 40.9706C45.4714 36.4697 48 30.3652 48 24C48 17.6348 45.4714 11.5303 40.9706 7.02944C36.7059 2.76479 31.0016 0.270856 24.9999 0.0208157C24.4481 -0.00217353 24 0.447715 24 1L24 10.9662C24 11.5184 24.4486 11.9618 24.9989 12.0077C27.8247 12.2429 30.4891 13.4707 32.5092 15.4908C34.766 17.7476 36.0338 20.8084 36.0338 24C36.0338 27.1916 34.766 30.2524 32.5092 32.5092C30.4891 34.5294 27.8247 35.7571 24.9989 35.9924C24.4486 36.0382 24 36.4816 24 37.0339L24 47Z" fill="white"/>
<path d="M24 17C27.866 17 31 20.134 31 24C31 27.866 27.866 31 24 31C20.134 31 17 27.866 17 24C17 20.134 20.134 17 24 17Z" fill="#D9D9D9" stroke="white" stroke-width="2"/>
</svg>
